Coordinates
version=1
nRows=12
nColumns=24
inDegrees=yes

Units are S.I. units (second, meters, Newtons, ...)
Angles are in degrees.

endheader
time	pelvis_tilt	pelvis_list	pelvis_rotation	pelvis_tx	pelvis_ty	pelvis_tz	hip_flexion_r	hip_adduction_r	hip_rotation_r	knee_angle_r	ankle_angle_r	subtalar_angle_r	mtp_angle_r	hip_flexion_l	hip_adduction_l	hip_rotation_l	knee_angle_l	ankle_angle_l	subtalar_angle_l	mtp_angle_l	lumbar_extension	lumbar_bending	lumbar_rotation
      4.36000000	    -15.85336781	      5.59585197	     -2.74816308	     -0.85258434	     -0.00771309	     -0.36629391	     34.19367401	     -5.70469125	     -3.14017998	    -59.37215699	     -3.17502058	    -11.21822732	     26.30032141	     20.27280445	      6.74198388	     -6.48676085	    -14.85641274	      3.40704384	     -1.75020217	      5.07502237	     21.81046928	     -7.42505067	     -9.66746356
      4.36500000	    -15.75901137	      5.31386771	     -2.46212188	     -0.84643916	     -0.00706544	     -0.36674330	     34.64357384	     -5.60955543	     -3.82765123	    -58.55936161	     -2.66165818	    -11.39068985	     25.30313793	     19.36960702	      6.65095941	     -5.99751302	    -14.24023463	      3.52238692	     -1.70208092	      4.75620668	     21.64528306	     -7.28306638	    -10.07013928
      4.37000000	    -15.84978332	      4.97662110	     -2.21332200	     -0.84031963	     -0.00664097	     -0.36709272	     35.26738321	     -5.40396420	     -4.43786879	    -57.62977395	     -2.21848501	    -11.54342455	     24.96754633	     18.69887923	      6.44408605	     -5.69907782	    -13.67115712	      3.66343133	     -1.53667810	      4.66589454	     21.68304677	     -7.06354965	    -10.52016208
      4.37500000	    -15.85045201	      4.66764765	     -1.94893803	     -0.83420849	     -0.00621587	     -0.36748328	     35.77528315	     -5.26764196	     -5.09826753	    -56.64675643	     -1.81474301	    -11.71888642	     24.52028712	     17.91362946	      6.27878541	     -5.31382329	    -13.06394483	      3.78479092	     -1.43276845	      4.51823886	     21.62327048	     -6.87870622	    -10.94861687
      4.38000000	    -15.80423906	      4.41368008	     -1.69849541	     -0.82810347	     -0.00584588	     -0.36783090	     36.23409797	     -5.18960222	     -5.73862413	    -55.64051058	     -1.44472584	    -11.83258745	     23.85797931	     17.06259703	      6.16048465	     -4.91151803	    -12.42264235	      3.89517826	     -1.33546117	      4.30632890	     21.51827520	     -6.74816584	    -11.34482668
      4.38500000	    -15.82346687	      4.14017668	     -1.49352619	     -0.82198765	     -0.00561419	     -0.36813681	     36.74105152	     -5.06289782	     -6.33957982	    -54.55836413	     -1.09324440	    -11.87195335	     23.28901550	     16.29818282	      5.99249234	     -4.62134378	    -11.80675732	      4.02547475	     -1.22676566	      4.14439478	     21.49246833	     -6.56843590	    -11.68861911
      4.39000000	    -15.82199307	      3.89157332	     -1.30899130	     -0.81587957	     -0.00545480	     -0.36840736	     37.21445677	     -4.95447042	     -6.92126365	    -53.43037291	     -0.76179795	    -11.87272989	     22.71124099	     15.51123905	      5.83713807	     -4.35619137	    -11.18378818	      4.15208004	     -1.12024637	      3.99771045	     21.44607299	     -6.40504135	    -12.00283349
      4.39500000	    -15.82132039	      3.65689176	     -1.14472317	     -0.80976243	     -0.00538450	     -0.36864367	     37.67224611	     -4.84908310	     -7.48080840	    -52.25320581	     -0.44994075	    -11.82222547	     22.13512485	     14.73221210	      5.68168355	     -4.13336960	    -10.56995942	      4.28422736	     -1.00393341	      3.87943664	     21.40576964	     -6.24570545	    -12.28987856
      4.40000000	    -15.85993759	      3.43564938	     -1.02568341	     -0.80364792	     -0.00544266	     -0.36882555	     38.15535267	     -4.72063847	     -7.97707373	    -51.01281305	     -0.13254337	    -11.72562245	     21.71025880	     14.01777260	      5.52081073	     -4.01575681	     -9.99088633	      4.41923024	     -0.90502567	      3.80477832	     21.41192679	     -6.07578043	    -12.54064422
      4.40500000	    -15.82914280	      3.22301961	     -0.88349927	     -0.79753069	     -0.00550362	     -0.36899714	     38.54767535	     -4.63150001	     -8.52885157	    -49.74749061	      0.10360662	    -11.58871199	     21.16534309	     13.21803953	      5.36508235	     -3.82291788	     -9.39142908	      4.56473273	     -0.73782371	      3.75727944	     21.33895645	     -5.93250488	    -12.79062235
      4.41000000	    -15.93833416	      3.06362765	     -0.86177444	     -0.79141697	     -0.00585455	     -0.36904706	     39.10659124	     -4.49443837	     -8.89649306	    -48.44748256	      0.36605412	    -11.38807227	     20.95054654	     12.59642943	      5.23301191	     -3.79781998	     -8.83888117	      4.73156434	     -0.65261628	      3.73139967	     21.43277143	     -5.77835900	    -12.89444762
      4.41500000	    -15.85153672	      2.82531146	     -0.69542502	     -0.78528786	     -0.00597617	     -0.36922067	     39.36483008	     -4.39631890	     -9.49060256	    -47.05445977	      0.57007114	    -11.19140048	     20.43498490	     11.78992254	      5.04319363	     -3.66225775	     -8.33287443	      4.89487046	     -0.43717609	      3.75605473	     21.29213379	     -5.61976312	    -13.21306515
